<?xml version="1.0" encoding="utf-8"?>
<!-- Generator: Adobe Illustrator 19.0.0, SVG Export Plug-In . SVG Version: 6.00 Build 0)  -->
<svg version="1.1" id="layer" xmlns="http://www.w3.org/2000/svg" xmlns:xlink="http://www.w3.org/1999/xlink" x="0px" y="0px"
	 viewBox="-153 -46 652 652" style="enable-background:new -153 -46 652 652;" xml:space="preserve">
<style type="text/css">
	.st0{fill:#1E2746;}
</style>
<path class="st0" d="M-126.1,329.2h8v-41.4h-8V329.2z M-104.5,287.8v41.4h7.8v-29.4l24.8,29.4h6.9v-41.4h-7.8v28.9l-24.6-28.9
	H-104.5z M-56,287.8v6.3h14.7v35.2h8V294h14.7v-6.3H-56z M-9.4,287.8v41.4h27.2v-6.3H-1.4v-11.8h18v-6.3h-18V294h18.8v-6.3H-9.4z
	 M29.5,287.8v41.4h8v-17.5h2.9c1.3,0,2.4,0.3,3.4,1c1,0.6,2,1.7,3.1,3.3s2.7,4.5,5,8.9c1,2,1.9,3.5,2.5,4.4h8.9
	c-1.2-1.9-3.1-5.4-5.6-10.4c-1.5-2.9-2.8-5-3.8-6.2c-1-1.2-2.2-2.2-3.5-2.9c2.4-1,4.2-2.4,5.4-4.1c1.2-1.7,1.8-3.8,1.8-6.2
	c0-3.5-1.2-6.3-3.7-8.4c-2.5-2.2-5.6-3.2-9.5-3.2H29.5z M37.5,305.4v-11.5h5c2.2,0,3.9,0.5,5.1,1.4c1.2,0.9,1.8,2.4,1.8,4.3
	c0,1.8-0.6,3.3-1.8,4.3c-1.2,1-2.8,1.6-4.9,1.6H37.5z M71.8,329.2h8v-41.4h-8V329.2z M100.3,290c-3.4,1.8-6.1,4.4-8.1,7.8
	c-2,3.3-2.9,6.9-2.9,10.7c0,3.9,1,7.5,2.9,10.8c2,3.3,4.7,5.8,8.2,7.7c3.5,1.9,7.4,2.8,11.7,2.8c4.3,0,8.3-0.9,11.7-2.7
	c3.5-1.8,6.2-4.4,8.2-7.7c2-3.3,3-6.9,3-10.8c0-4-1-7.6-3.1-11c-2-3.3-4.8-5.9-8.2-7.7c-3.4-1.8-7.3-2.7-11.6-2.7
	C107.7,287.2,103.8,288.1,100.3,290 M99.4,301.1c1.2-2.2,2.9-3.9,5.2-5.1c2.2-1.2,4.8-1.8,7.6-1.8c2.8,0,5.3,0.6,7.6,1.8
	c2.2,1.2,4,2.9,5.2,5.1c1.2,2.2,1.9,4.7,1.9,7.4c0,4.2-1.4,7.7-4.1,10.3c-2.7,2.7-6.2,4-10.5,4c-2.8,0-5.3-0.6-7.5-1.8
	c-2.2-1.2-4-2.9-5.2-5.1c-1.2-2.2-1.9-4.7-1.9-7.4C97.6,305.7,98.2,303.2,99.4,301.1 M144.4,287.8v41.4h8v-17.5h2.9
	c1.3,0,2.4,0.3,3.4,1c1,0.6,2,1.7,3.1,3.3s2.7,4.5,5,8.9c1,2,1.9,3.5,2.5,4.4h8.9c-1.2-1.9-3.1-5.4-5.6-10.4c-1.5-2.9-2.8-5-3.8-6.2
	c-1-1.2-2.2-2.2-3.5-2.9c2.4-1,4.2-2.4,5.4-4.1c1.2-1.7,1.8-3.8,1.8-6.2c0-3.5-1.2-6.3-3.7-8.4s-5.6-3.2-9.5-3.2H144.4z
	 M152.4,305.4v-11.5h5c2.2,0,3.9,0.5,5.1,1.4c1.2,0.9,1.8,2.4,1.8,4.3c0,1.8-0.6,3.3-1.8,4.3c-1.2,1-2.8,1.6-4.9,1.6H152.4z
	 M187.7,290.3c-2.6,2.1-3.9,4.8-3.9,8.3c0,2.6,0.8,4.9,2.4,6.9c1.6,2,4,3.7,7.3,5.2c2.7,1.3,5,2.5,6.7,3.4c2.1,1.2,3.1,2.8,3.1,4.7
	c0,1.4-0.6,2.5-1.8,3.4c-1.2,0.9-2.8,1.3-4.7,1.3c-3.9,0-8.1-1.8-12.5-5.5v7.9c2.4,1.4,4.5,2.4,6.4,3c1.9,0.6,4.2,0.9,6.8,0.9
	c4.1,0,7.4-1.1,9.9-3.3c2.6-2.2,3.8-5.1,3.8-8.6c0-2.7-0.8-5.1-2.3-7.1c-1.5-2-4-3.7-7.4-5.3c-4-1.8-6.3-2.9-6.9-3.3
	c-2.1-1.3-3.2-2.8-3.2-4.3c0-1.3,0.6-2.3,1.7-3.1c1.1-0.8,2.7-1.2,4.7-1.2c3.3,0,7.1,1.3,11.4,3.9v-7.1c-3.7-2-7.6-3-11.7-3
	C193.7,287.2,190.3,288.3,187.7,290.3 M-30.8,229.1V270h7.9v-28.7h0.2l11.8,14.4h1.1l11.8-14.4h0.2V270h7.9v-40.9H3.2l-13.4,16.1
	l-13.4-16.1H-30.8z M37.3,229.1L20.4,270h8.3l4-10h18.2l4.2,10h8.3l-18.1-40.9H37.3z M41.4,237.9l6.9,16.2H35.1L41.4,237.9z
	 M71.3,229.1V270h7.9v-17.3H82c1.3,0,2.4,0.3,3.4,1c1,0.6,2,1.7,3,3.2c1.1,1.5,2.7,4.4,5,8.8c1,2,1.9,3.4,2.5,4.3h8.8
	c-1.2-1.9-3.1-5.3-5.6-10.2c-1.5-2.9-2.8-4.9-3.8-6.1c-1-1.2-2.2-2.2-3.5-2.9c2.4-1,4.1-2.4,5.3-4.1c1.2-1.7,1.8-3.8,1.8-6.1
	c0-3.4-1.2-6.2-3.6-8.3c-2.4-2.1-5.6-3.2-9.4-3.2H71.3z M79.2,246.6v-11.4h4.9c2.2,0,3.8,0.5,5,1.4c1.2,0.9,1.8,2.3,1.8,4.2
	c0,1.8-0.6,3.2-1.8,4.2c-1.2,1-2.8,1.6-4.9,1.6H79.2z M113,270h7.9v-40.9H113V270z M133.1,229.1V270h7.7v-29l24.4,29h6.8v-40.9h-7.7
	v28.5l-24.3-28.5H133.1z M184.1,229.1V270h26.8v-6.2H192v-11.6h17.7V246H192v-10.7h18.5v-6.2H184.1z M263.8,268.1
	c-4.1,0-7.5,1.3-10.2,3.9c-2.7,2.6-4.1,5.8-4.1,9.7c0,3.9,1.4,7.2,4.1,9.8c2.8,2.6,6.2,3.9,10.3,3.9c3.2,0,6.3-0.7,9.4-2.2V283h-7.7
	v1.7h5.6v7.2c-2.1,1.1-4.5,1.6-7.3,1.6c-3.8,0-6.8-1.1-9-3.3c-2.2-2.2-3.3-5-3.3-8.4c0-3.4,1.1-6.2,3.3-8.4c2.2-2.2,5-3.3,8.4-3.3
	c3.1,0,6.3,0.9,9.4,2.7v-2.3C269.6,268.9,266.6,268.1,263.8,268.1 M279.1,295h1.9v-26.6h-1.9V295z M287.9,279.8
	c-1.7,1.7-2.6,3.9-2.6,6.5c0,2.6,0.9,4.7,2.6,6.5c1.7,1.7,3.8,2.6,6.4,2.6c2.5,0,4.6-0.9,6.3-2.6c1.7-1.7,2.5-3.9,2.5-6.5
	c0-2.6-0.8-4.8-2.5-6.5c-1.7-1.7-3.8-2.6-6.3-2.6C291.7,277.2,289.6,278.1,287.9,279.8 M289.3,291.5c-1.3-1.4-2-3.1-2-5.2
	c0-2.1,0.7-3.8,2-5.2c1.3-1.4,3-2.1,5-2.1c1.9,0,3.6,0.7,4.9,2.1c1.3,1.4,2,3.1,2,5.2c0,2.1-0.7,3.8-2,5.2c-1.3,1.4-3,2.1-4.9,2.1
	C292.3,293.6,290.6,292.9,289.3,291.5 M313.4,295.4c3,0,5.3-0.9,7.1-2.6c1.8-1.8,2.7-4.1,2.7-7c0-2.5-0.7-4.6-2.2-6.2
	c-1.5-1.6-3.3-2.4-5.6-2.4c-2.3,0-4.4,1-6.3,2.9v-11.6h-1.9v25.6C309.4,295,311.5,295.4,313.4,295.4 M315.1,278.8
	c1.7,0,3.2,0.7,4.3,2c1.1,1.3,1.7,3,1.7,5.1c0,2.2-0.7,4.1-2.2,5.5c-1.5,1.5-3.3,2.2-5.6,2.2c-1.4,0-2.9-0.3-4.3-0.8v-10.6
	C311,279.9,313.1,278.8,315.1,278.8 M338.5,293.6c-0.3,0-0.4-0.3-0.4-0.9v-10.9c0-1.5-0.5-2.6-1.5-3.4c-1-0.8-2.3-1.2-3.9-1.2
	c-1.8,0-3.7,0.6-5.6,1.9v1.9c1.9-1.5,3.7-2.2,5.3-2.2c2.6,0,3.9,1.2,3.9,3.6v2.2c-3.3,0.2-5.8,0.8-7.6,1.9c-1.8,1.1-2.6,2.6-2.6,4.5
	c0,1.2,0.5,2.3,1.4,3.1c0.9,0.9,2,1.3,3.3,1.3c1.8,0,3.6-0.7,5.5-2.2c0.1,0.9,0.2,1.5,0.4,1.7c0.2,0.3,0.5,0.4,0.9,0.4
	c0.7,0,1.9-0.6,3.5-1.8V292C339.7,293,338.9,293.6,338.5,293.6 M331.4,293.9c-1,0-1.8-0.3-2.5-0.8c-0.7-0.6-1-1.2-1-2.1
	c0-1.4,0.8-2.6,2.4-3.6c1.6-0.9,3.6-1.4,6-1.3v5.5C334.6,293.1,333,293.9,331.4,293.9 M344.7,295h1.9v-26.6h-1.9V295z M362.4,268.5
	V295h14.8v-1.7h-12.7v-10.8h12.1v-1.7h-12.1v-10.6h12.4v-1.7H362.4z M395.5,295h2.4l-8-9l8-8.5h-2.4l-6.8,7.3l-6.9-7.3h-2.4l8,8.5
	l-8,9h2.4l6.9-7.7L395.5,295z M401,277.6V304h1.9v-9.9c1.8,0.9,3.5,1.3,5.2,1.3c2.4,0,4.5-0.9,6.2-2.7c1.7-1.8,2.5-3.9,2.5-6.5
	c0-2.6-0.8-4.8-2.5-6.5c-1.6-1.7-3.7-2.6-6.2-2.6c-1.7,0-3.5,0.4-5.3,1.3v-1H401z M407.5,279c2.1,0,3.8,0.7,5.2,2.1
	c1.4,1.4,2.1,3.1,2.1,5.3c0,2.1-0.6,3.9-1.9,5.2c-1.3,1.3-3,2-5.1,2c-1.6,0-3.2-0.4-4.8-1.3v-11.9C404.5,279.5,406,279,407.5,279
	 M422.6,279.8c-1.7,1.7-2.6,3.9-2.6,6.5c0,2.6,0.9,4.7,2.6,6.5c1.7,1.7,3.8,2.6,6.4,2.6c2.5,0,4.7-0.9,6.3-2.6
	c1.7-1.7,2.5-3.9,2.5-6.5c0-2.6-0.8-4.8-2.5-6.5c-1.7-1.7-3.8-2.6-6.3-2.6C426.5,277.2,424.3,278.1,422.6,279.8 M424,291.5
	c-1.3-1.4-2-3.1-2-5.2c0-2.1,0.7-3.8,2-5.2c1.3-1.4,3-2.1,4.9-2.1c2,0,3.6,0.7,4.9,2.1c1.3,1.4,2,3.1,2,5.2c0,2.1-0.7,3.8-2,5.2
	c-1.3,1.4-3,2.1-4.9,2.1C427,293.6,425.4,292.9,424,291.5 M263.4,229.2c-3.8,0-7.1,1.3-9.8,3.9c-2.8,2.6-4.1,5.9-4.1,9.8
	c0,3.9,1.3,7.1,4,9.7c2.7,2.6,6.1,3.9,10.1,3.9c3.1,0,6.3-0.8,9.4-2.5v-2.1c-3.4,1.8-6.6,2.7-9.4,2.7c-3.5,0-6.3-1.1-8.5-3.3
	c-2.2-2.2-3.3-5-3.3-8.4c0-3.4,1.1-6.2,3.3-8.4c2.2-2.2,5-3.4,8.3-3.4c3.1,0,6.2,0.9,9.5,2.6v-2.2
	C269.5,230,266.4,229.2,263.4,229.2 M285.2,238.3c-2,0-4,1.6-6.1,4.9H279v-4.6h-1.9v17.5h1.9v-11c2-3.3,3.9-5,5.6-5
	c0.9,0,2.1,0.7,3.5,2l1.1-1.7C287.7,239,286.4,238.3,285.2,238.3 M306.6,256.1v-17.5h-1.9v12.3c-0.9,1.4-1.7,2.3-2.6,2.9
	c-0.9,0.6-1.9,0.8-3.1,0.8c-1.4,0-2.6-0.5-3.5-1.4c-0.9-0.9-1.3-2.2-1.3-3.8v-10.8h-1.9v10.8c0,2.2,0.6,4,1.8,5.2
	c1.2,1.2,2.8,1.8,4.7,1.8c1.3,0,2.4-0.2,3.3-0.7c0.9-0.5,1.7-1.3,2.5-2.5h0.1v2.9H306.6z M312.6,232.8h1.9v-3.2h-1.9V232.8z
	 M312.6,256.1h1.9v-17.5h-1.9V256.1z M325.3,238.3c-1.6,0-2.9,0.5-4,1.4c-1.1,0.9-1.6,2.1-1.6,3.4c0,0.9,0.3,1.8,0.9,2.6
	c0.6,0.8,1.9,1.5,3.9,2.3c2,0.8,3.2,1.4,3.7,1.9c0.4,0.5,0.7,1.1,0.7,1.7c0,0.9-0.3,1.6-1,2.2c-0.7,0.6-1.6,0.9-2.7,0.9
	c-1.6,0-3.4-0.5-5.5-1.6v1.8c1.7,1.1,3.5,1.6,5.2,1.6c1.6,0,3-0.5,4.1-1.4c1.1-0.9,1.7-2.1,1.7-3.4c0-1-0.3-1.9-0.9-2.8
	c-0.6-0.8-1.9-1.6-3.9-2.4c-2-0.8-3.2-1.4-3.6-1.9c-0.4-0.5-0.7-1-0.7-1.6c0-0.8,0.4-1.5,1.1-2.1c0.7-0.6,1.6-0.9,2.7-0.9
	c1.4,0,3,0.6,4.8,1.8v-2C328.3,238.8,326.8,238.3,325.3,238.3 M347.6,240.6c-1.5-1.5-3.3-2.3-5.5-2.3c-2.3,0-4.2,0.8-5.7,2.5
	c-1.5,1.7-2.3,3.8-2.3,6.4c0,2.7,0.8,4.9,2.5,6.7c1.6,1.7,3.7,2.6,6.3,2.6c2.5,0,4.7-0.8,6.7-2.3V252c-2.1,1.7-4.3,2.6-6.5,2.6
	c-1.9,0-3.5-0.7-4.9-2c-1.4-1.4-2.1-3-2.1-5c0-0.3,0-0.6,0.1-0.9h13.8C349.9,244.1,349.1,242.1,347.6,240.6 M338.4,241.4
	c1-0.9,2.3-1.3,3.7-1.3c3,0,4.9,1.7,5.5,5.1h-11.3C336.7,243.6,337.4,242.3,338.4,241.4 M375.7,248.9l-6-6.3c3.7-1.9,5.5-4.2,5.5-7
	c0-1.6-0.5-2.9-1.6-3.9c-1.1-1-2.5-1.6-4.2-1.6c-1.8,0-3.3,0.6-4.5,1.7c-1.2,1.1-1.8,2.5-1.8,4.1c0,1.8,1.1,3.9,3.3,6.2
	c-4.4,1.9-6.6,4.6-6.6,8.1c0,1.9,0.6,3.4,1.9,4.6c1.3,1.2,2.9,1.7,5,1.7c3.5,0,6.5-1.5,9.1-4.5l4,4.2h2.6l-5.4-5.7
	c1.6-2.4,2.8-4.9,3.7-7.5h-2.2C377.9,245.1,376.9,247.1,375.7,248.9 M365.2,235.8c0-1.1,0.4-2,1.2-2.7c0.8-0.7,1.8-1.1,3-1.1
	c1.2,0,2.1,0.4,2.9,1.1c0.8,0.7,1.1,1.6,1.1,2.7c0,2.2-1.7,4-5,5.4C366.2,239.2,365.2,237.4,365.2,235.8 M367.3,254.6
	c-1.6,0-2.9-0.4-3.8-1.2c-0.9-0.8-1.4-2-1.4-3.4c0-1.4,0.5-2.6,1.4-3.6c0.9-1,2.4-1.9,4.3-2.8l6.7,7
	C372.4,253.2,369.9,254.6,367.3,254.6 M392,229.6v26.6h2.1v-13h10.5v-1.7h-10.5v-10.1h11.6v-1.7H392z M421.9,240.6
	c-1.5-1.5-3.3-2.3-5.5-2.3c-2.3,0-4.2,0.8-5.7,2.5c-1.5,1.7-2.3,3.8-2.3,6.4c0,2.7,0.8,4.9,2.5,6.7c1.6,1.7,3.7,2.6,6.3,2.6
	c2.5,0,4.7-0.8,6.7-2.3V252c-2.1,1.7-4.3,2.6-6.5,2.6c-1.9,0-3.5-0.7-4.9-2c-1.4-1.4-2.1-3-2.1-5c0-0.3,0-0.6,0.1-0.9h13.8
	C424.1,244.1,423.4,242.1,421.9,240.6 M412.7,241.4c1-0.9,2.3-1.3,3.7-1.3c3,0,4.9,1.7,5.5,5.1h-11.3
	C410.9,243.6,411.6,242.3,412.7,241.4 M436.8,238.3c-2,0-4,1.6-6.1,4.9h-0.1v-4.6h-1.9v17.5h1.9v-11c2-3.3,3.9-5,5.6-5
	c0.9,0,2.1,0.7,3.5,2l1.1-1.7C439.2,239,437.9,238.3,436.8,238.3 M451.5,238.3c-2,0-4,1.6-6.1,4.9h-0.1v-4.6h-1.9v17.5h1.9v-11
	c2-3.3,3.9-5,5.6-5c0.9,0,2.1,0.7,3.5,2l1.1-1.7C454,239,452.6,238.3,451.5,238.3 M472,238.6l-6,12.2l-6.3-12.2h-2l7.4,14.1
	l-6.1,12.4h1.9l13.1-26.4H472z M250.2,313.6V329h3v-6.5h2.9c1.5,0,2.7-0.4,3.6-1.2c0.9-0.8,1.4-1.9,1.4-3.2c0-1.3-0.5-2.4-1.4-3.2
	c-0.9-0.8-2.1-1.3-3.5-1.3H250.2z M253.2,320.2v-4.3h2c1.8,0,2.7,0.7,2.7,2.1c0,0.7-0.2,1.3-0.7,1.6c-0.4,0.4-1.1,0.5-1.9,0.5H253.2
	z M264.4,319.1c-0.9,0.4-1.5,1.1-2,1.9c-0.5,0.8-0.7,1.7-0.7,2.8c0,1.1,0.2,2,0.7,2.8c0.5,0.8,1.1,1.4,2,1.9
	c0.9,0.5,1.9,0.7,2.9,0.7c1.1,0,2.1-0.2,3-0.7c0.9-0.5,1.6-1.1,2-1.9c0.5-0.8,0.7-1.7,0.7-2.8c0-1-0.2-1.9-0.7-2.7
	c-0.5-0.8-1.2-1.4-2-1.9c-0.9-0.4-1.9-0.7-2.9-0.7C266.2,318.5,265.3,318.7,264.4,319.1 M265.3,321.4c0.5-0.6,1.2-0.9,2-0.9
	c0.9,0,1.6,0.3,2.1,0.9c0.5,0.6,0.8,1.4,0.8,2.4c0,1.1-0.3,1.9-0.8,2.5c-0.5,0.6-1.2,0.9-2.1,0.9c-0.8,0-1.5-0.3-2-0.9
	c-0.5-0.6-0.8-1.4-0.8-2.5C264.5,322.8,264.8,322,265.3,321.4 M274,318.7l4.6,10.5h1.1l2.8-6.3l2.8,6.3h1.1l4.6-10.5h-2.8l-2.4,5.9
	l-2.4-5.9h-1.8l-2.4,5.9l-2.4-5.9H274z M293.6,320c-1,1-1.4,2.3-1.4,3.8c0,1.6,0.5,2.9,1.5,3.9c1,1,2.4,1.5,4,1.5
	c1.7,0,3.2-0.4,4.4-1.3v-2c-0.6,0.5-1.3,0.8-1.9,1c-0.6,0.2-1.2,0.3-1.9,0.3c-1,0-1.8-0.2-2.4-0.7c-0.6-0.5-0.9-1.2-1-2.1h7.3V324
	c0-1.7-0.4-3.1-1.3-4c-0.9-1-2.1-1.5-3.6-1.5C295.8,318.5,294.5,319,293.6,320 M295,322.7c0.1-0.8,0.4-1.4,0.8-1.8
	c0.4-0.4,1-0.6,1.7-0.6c0.7,0,1.2,0.2,1.6,0.6c0.4,0.4,0.6,1,0.7,1.8H295z M309.3,319.1c-0.5,0.4-1,1.2-1.5,2.2h0v-2.6H305V329h2.7
	v-4.7c0-0.5,0.1-1,0.4-1.5c0.2-0.5,0.6-0.9,1-1.2c0.4-0.3,0.8-0.5,1.2-0.5c0.5,0,1.1,0.3,1.9,0.9l1-2.4c-0.5-0.4-0.9-0.7-1.2-0.8
	c-0.4-0.2-0.7-0.2-1.1-0.2C310.3,318.5,309.8,318.7,309.3,319.1 M315.6,320c-1,1-1.4,2.3-1.4,3.8c0,1.6,0.5,2.9,1.5,3.9
	c1,1,2.4,1.5,4,1.5c1.7,0,3.2-0.4,4.4-1.3v-2c-0.6,0.5-1.3,0.8-1.9,1c-0.6,0.2-1.2,0.3-1.9,0.3c-1,0-1.8-0.2-2.4-0.7
	c-0.6-0.5-0.9-1.2-1-2.1h7.3V324c0-1.7-0.4-3.1-1.3-4c-0.9-1-2.1-1.5-3.6-1.5C317.8,318.5,316.6,319,315.6,320 M317,322.7
	c0.1-0.8,0.4-1.4,0.8-1.8c0.4-0.4,1-0.6,1.7-0.6c0.7,0,1.2,0.2,1.6,0.6s0.6,1,0.7,1.8H317z M331.7,318.5c-0.9,0-1.8,0.2-2.6,0.7
	c-0.8,0.5-1.4,1.1-1.9,1.9c-0.5,0.8-0.7,1.7-0.7,2.6c0,1.6,0.5,2.9,1.5,3.9c1,1,2.3,1.4,4,1.4h4.8v-15.4H334v5.3
	C333.2,318.6,332.4,318.5,331.7,318.5 M329.3,323.6c0-0.9,0.3-1.7,0.8-2.2c0.5-0.6,1.3-0.9,2.2-0.9c0.6,0,1.2,0.1,1.7,0.4v6h-1.4
	C330.4,326.9,329.3,325.8,329.3,323.6 M345.7,313.6v14.8c1.5,0.6,3,0.9,4.6,0.9c1.7,0,3.1-0.5,4.1-1.5c1-1,1.5-2.3,1.5-4
	c0-1-0.2-1.9-0.6-2.7c-0.4-0.8-1-1.4-1.7-1.9c-0.7-0.4-1.6-0.7-2.5-0.7c-1,0-1.9,0.3-2.7,0.9v-5.8H345.7z M348.4,321.4
	c0.4-0.3,0.7-0.5,1-0.7c0.3-0.1,0.7-0.2,1-0.2c0.8,0,1.5,0.3,2,0.9c0.5,0.6,0.7,1.4,0.7,2.3c0,1.1-0.2,1.9-0.7,2.5
	c-0.5,0.6-1.1,0.9-2,0.9c-0.8,0-1.4-0.1-2-0.3V321.4z M357.5,318.7l4,8.4l-3.3,7.1h2.9l7.1-15.5h-2.9l-2.5,5.5l-2.4-5.5H357.5z
	 M375.6,314.5c-1,0.8-1.4,1.8-1.4,3.1c0,1,0.3,1.8,0.9,2.6c0.6,0.7,1.5,1.4,2.7,1.9c1,0.5,1.9,0.9,2.5,1.3c0.8,0.4,1.2,1,1.2,1.7
	c0,0.5-0.2,0.9-0.7,1.3c-0.4,0.3-1,0.5-1.8,0.5c-1.5,0-3-0.7-4.7-2.1v2.9c0.9,0.5,1.7,0.9,2.4,1.1c0.7,0.2,1.6,0.3,2.5,0.3
	c1.5,0,2.8-0.4,3.7-1.2c1-0.8,1.4-1.9,1.4-3.2c0-1-0.3-1.9-0.8-2.6c-0.6-0.7-1.5-1.4-2.7-2c-1.5-0.7-2.3-1.1-2.6-1.2
	c-0.8-0.5-1.2-1-1.2-1.6c0-0.5,0.2-0.9,0.6-1.2c0.4-0.3,1-0.4,1.8-0.4c1.2,0,2.7,0.5,4.3,1.4v-2.7c-1.4-0.8-2.8-1.1-4.3-1.1
	C377.8,313.4,376.5,313.7,375.6,314.5 M387.7,313.6V329h3v-10.8h0.1l4.5,5.4h0.4l4.5-5.4h0.1V329h3v-15.4h-2.7l-5.1,6.1l-5.1-6.1
	H387.7z M407.2,313.6V329h3v-10.8h0.1l4.5,5.4h0.4l4.5-5.4h0.1V329h3v-15.4H420l-5.1,6.1l-5.1-6.1H407.2z M232.2,332.8h-3.1V225.9
	h3.1V332.8z"/>
</svg>
