<?xml version="1.0" encoding="UTF-8"?> <!-- Generator: Adobe Illustrator 24.1.0, SVG Export Plug-In . SVG Version: 6.00 Build 0) --> <svg xmlns="http://www.w3.org/2000/svg" xmlns:xlink="http://www.w3.org/1999/xlink" version="1.1" id="Warstwa_1" x="0px" y="0px" viewBox="0 0 463 115.6" style="enable-background:new 0 0 463 115.6;" xml:space="preserve"> <style type="text/css"> .st0{fill:#FFFFFF;} .st1{fill:#EA690B;} </style> <path class="st0" d="M19.8,102.4h-6.4v-4.7h12.2v16.6c-3.4,0.9-7,1.3-10.5,1.3c-9.4,0-13.9-3.6-13.9-15.7s5.1-15.2,14.7-15.2 c3,0,6,0.4,8.9,1.1l-1.1,4.9c-2.4-0.6-4.9-0.9-7.3-0.9c-6.7,0-9.1,1.1-9.1,10.2s2.4,10.5,8.9,10.5c1.3,0,2.6-0.2,3.8-0.4L19.8,102.4 z"></path> <path class="st0" d="M45.3,94v-9.7h5.3V114c-3,1-6.2,1.6-9.4,1.6c-7.1,0-10.4-2.6-10.4-11.4s3.6-11.4,9.4-11.4 C41.9,92.7,43.7,93.1,45.3,94z M45.3,110.5V99.3c0-1.3-1.9-2.1-4.2-2.1c-3.7,0-4.9,1.5-4.9,6.9c0,5.9,1.2,7,5,7 C42.6,111.1,44,110.9,45.3,110.5L45.3,110.5z"></path> <path class="st0" d="M74.5,113.9c-3.1,1.1-6.4,1.7-9.8,1.7c-6.8,0-9.1-1.6-9.1-7.2c0-6.1,3.4-7.1,8.5-7.1c1.8,0,3.6,0.2,5.3,0.6 c0-3.8-0.9-4.7-5.4-4.7c-2.2,0-4.4,0.3-6.5,1.1l-1-4.3c2.8-0.7,5.7-1.1,8.6-1.2c6.4,0,9.3,2,9.3,8.4L74.5,113.9z M69.5,105.4 c-1.4-0.3-2.9-0.4-4.3-0.4c-3,0-4,0.3-4,3.1c0,2.9,0.8,3.4,4,3.4c1.5,0,2.9-0.3,4.3-0.7L69.5,105.4z"></path> <path class="st0" d="M85.5,115h-5.3V94.6c3.3-1.2,6.7-1.8,10.2-1.9c6.1,0,8.8,2.4,8.8,10.2V115H94v-11.5c0-4.8-0.9-6-4.6-6 c-1.3,0-2.6,0.2-3.9,0.5L85.5,115z M85,90.9l5.1-5.5h5.7l-6.2,5.5H85z"></path> <path class="st0" d="M113.1,97c-2.6,0-3.9,0.3-3.9,2.5c0,1.5,0.9,2,4.5,2.3c5.2,0.6,7.5,2.2,7.5,6.5c0,5.6-3.7,7.2-9.3,7.2 c-2.6,0-5.2-0.4-7.7-1.2l1.1-4.2c2.1,0.7,4.2,1,6.4,1c2.9,0,4.3-0.4,4.3-2.6c0-1.5-0.8-2.3-4.6-2.6c-4.8-0.4-7.3-1.7-7.3-6.2 c0-5.6,3.8-7.2,9.3-7.2c2.5,0,4.9,0.4,7.3,1.2l-1.1,4.1C117.3,97.4,115.2,97,113.1,97z"></path> <path class="st0" d="M140.1,115c-4.9-7.1-7.9-10.9-9-11.4V115h-5.3V84.3h5.3v19.2c1.2-1,4.1-4.5,8.4-10.2h6.2 c-4.1,5.6-7.1,8.9-8.3,9.8c1.1,0.7,4.3,4.6,8.9,11.8L140.1,115z"></path> <path class="st0" d="M7.5,26.4C3.6,29.9,1,34.7,0.3,39.9c-0.2,1.3-0.3,2.7-0.3,4c-0.1,4.7,1.4,9.4,4.2,13.1c2.7,3.8,7.2,6.1,11.9,6 c4,0,7.8-1.4,10.7-4.1c1.4-1.2,2.6-2.5,3.6-4v6.7h3.4V23c-5.3-0.6-9.7-0.9-13.2-0.9C15.9,21.6,11.1,23.2,7.5,26.4z M30.5,43.3 c0,5.3-1.8,9.4-5.3,12.5c-2.5,2.4-5.8,3.7-9.3,3.8c-4.1,0-7.5-2.3-10.2-6.8c-1.5-2.7-2.3-5.7-2.2-8.8c0-2.8,0.5-5.5,1.5-8.1 c0.9-2.6,2.4-4.9,4.4-6.8c2.8-2.7,6.7-4,10.6-3.8c1.3,0,4.8,0.2,10.6,0.7L30.5,43.3z"></path> <path class="st0" d="M90.6,21.5c-0.8-0.1-1.5-0.2-2.3-0.2c-3.9,0-7.6,1.5-10.4,4.1c-1.5,1.3-2.8,2.8-3.8,4.6 c-1.8-4.8-5.6-7.7-11.5-8.5c-0.8-0.1-1.5-0.2-2.3-0.2c-4.7,0-9.1,2.1-12,5.7v-4.3H45v39.1h3.4V33.5c0.6-1.9,1.8-3.6,3.3-4.9 c2.9-2.6,5.9-3.8,9-3.8c4.7,0,7.8,1.8,9.5,5.4c1.4,3.3,2,6.8,2,10.3v21.3h3.5V40.5c0-1.6,0-2.9-0.1-3.8c0.4-3.1,1.8-6,4.1-8.1 c2.9-2.5,5.9-3.8,9-3.8c4.7,0,7.8,1.8,9.5,5.4c1.4,3.3,2,6.8,2,10.3v21.3h3.5V40.5c0-5.4-0.8-9.7-2.4-12.7 C99.4,24.3,95.8,22.2,90.6,21.5z"></path> <path class="st0" d="M146.3,39.9c0-4.2-1.4-8.2-3.9-11.5c-2.5-3.3-6.2-5.4-10.2-5.9c-1.8-0.2-3.7-0.3-5.5-0.3 c-2.2,0-5.5,0.2-9.8,0.6V0h-3.4v61.7c5.3,0.6,9.7,0.9,13.2,1c4.7,0.4,9.3-1.2,12.7-4.3c4-3.5,6.3-8.3,6.9-14.5 c0.1-0.5,0.1-0.9,0.1-1.4c0-0.5,0-1,0-1.5L146.3,39.9z M142.8,42.5c0,0.5-0.1,1.1-0.2,1.8c-0.9,5.3-2.6,9.1-5.2,11.3 c-2.7,2.6-6.4,4-10.1,3.8c-1.3,0-4.8-0.2-10.6-0.7V26c4.2-0.4,7.7-0.6,10.6-0.7c4.5-0.3,8.1,0.8,10.9,3.4c2.7,2.6,4.3,6.4,4.6,11.6 L142.8,42.5z"></path> <path class="st0" d="M202.2,26.2c-1.7,1.5-3.1,3.2-4.2,5.1v-8.7h-3.4v39h3.4V43.3c0.1-1,0.2-2,0.4-3c0.8-5,2.7-8.8,5.7-11.4 c1.5-1.3,3.1-2.2,4.9-2.9v-3.4C206.5,23.3,204.2,24.5,202.2,26.2z"></path> <path class="st0" d="M172,59.4c-0.4,0-0.8,0-1.2,0c-3.7,0.1-7.3-1.3-10.1-3.8c-2.6-2.2-4.3-6-5.1-11.3c-0.1-0.6-0.2-1.2-0.2-1.8 v-0.3h30.4c0.2-4.5-0.9-8.9-3.2-12.7c-2.2-3.9-6.1-6.5-10.5-7.3c-0.8-0.1-1.6-0.2-2.4-0.2c-4,0-7.8,1.5-10.7,4.2 c-4.1,3.5-6.6,8.5-6.9,13.8c-0.1,0.3-0.1,0.6-0.1,0.9v2.9c0.8,6.3,3.1,11.2,6.9,14.5c3.3,2.9,7.6,4.4,12.7,4.3h0.4L172,59.4z M160.8,29.3c2.5-2.4,5.7-3.7,9.2-3.8c4.2,0,7.6,2.3,10.2,6.9c1.2,2,1.9,4.2,2.1,6.5h-26.7C156.1,35.1,157.9,31.7,160.8,29.3z"></path> <polygon class="st0" points="315.5,23.5 303.7,23.5 288,44 272,23.5 260.4,23.5 282.1,51.5 260,79.9 271.7,79.9 288,59 304.2,79.9 315.8,79.9 293.7,51.5 "></polygon> <path class="st0" d="M368.6,48.3c-0.4-8.5-3.5-15.3-9.1-20.3c-4.4-3.8-10-5.8-16.8-5.8c-1,0-1.9,0-2.7,0.1c-2.2,0-8,0.4-17.8,1.3 l-2.2,0.2v86.9h9.2V80.6c4.5,0.4,8.1,0.6,10.7,0.6c7.5,0,13.8-2.1,18.6-6.3c5.8-5,9.1-12.1,9.9-20.8c0.1-0.7,0.1-1.4,0.1-2.1 c0.1-0.7,0.1-1.4,0-2.2C368.6,49.5,368.6,49,368.6,48.3z M359.2,51.9c0,0.7-0.1,1.3-0.1,2c-1.1,6.5-3.2,11.1-6.1,13.8 c-3.5,3-7,4.5-10.8,4.5c-0.3,0-0.6,0-1.1,0c-1.1,0-4-0.1-11.8-0.7V32.1c4.6-0.5,8.6-0.7,11.9-0.8c5.3-0.3,9.5,1,12.7,3.9 s5,7.7,5.4,13.8C359.3,49.5,359.3,50.5,359.2,51.9L359.2,51.9z"></path> <path class="st1" d="M417.9,41.3c-5.6,0-10.2,4.6-10.2,10.2s4.6,10.2,10.2,10.2c5.6,0,10.2-4.6,10.2-10.2c0,0,0,0,0,0 C428.1,45.9,423.5,41.3,417.9,41.3z"></path> <path class="st1" d="M417.9,6.4c-24.9,0-45.1,20.2-45.1,45.1s20.2,45.1,45.1,45.1c24.9,0,45.1-20.2,45.1-45.1c0,0,0,0,0,0 C463,26.6,442.8,6.4,417.9,6.4z M417.9,87c-19.6,0-35.5-15.9-35.5-35.5c0-19.6,15.9-35.5,35.5-35.5c19.6,0,35.5,15.9,35.5,35.5 c0,0,0,0,0,0C453.4,71.1,437.5,87,417.9,87C417.9,87,417.9,87,417.9,87L417.9,87z"></path> <path class="st0" d="M244.7,72c-1.4,0.2-2.9,0.3-4.4,0.3c-0.6,0-1.3,0-2-0.1c-4.4,0.1-8.6-1.5-11.9-4.4c-3-2.6-5-7.2-6-13.7l0,0 h40.1l0.1-2.3c0.3-6.4-1.3-12.8-4.7-18.2c-3.8-6.1-9.1-9.7-15.6-10.7c-1.2-0.2-2.3-0.3-3.5-0.3c-5.9,0-11.5,2.1-15.9,6.1 c-5.9,5-9.5,12.1-10,19.8c-0.1,0.5-0.1,1-0.1,1.5v3.8v0.3c1.1,9,4.4,16,9.9,20.8c4.8,4.2,10.9,6.3,18.2,6.3h0.4 c1.5-0.1,3.1-0.2,4.9-0.4c0.1,0,0.3-0.1,0.4-0.1L244.7,72z M226.4,36.3c3.4-3,6.9-4.5,10.6-4.5c4.7,0,8.5,2.6,11.6,8 c0.9,1.6,1.6,3.3,2,5h-29.7C221.9,41.5,223.8,38.5,226.4,36.3z"></path> <path class="st0" d="M309.1,94.3c-2.4,0-4.4-2-4.4-4.4c0-2.4,2-4.4,4.4-4.4s4.4,2,4.4,4.4c0,0,0,0,0,0 C313.5,92.4,311.5,94.4,309.1,94.3L309.1,94.3z M309.1,86.1c-2.1,0-3.8,1.8-3.8,3.9c0,2.1,1.8,3.8,3.9,3.8c2.1,0,3.8-1.7,3.8-3.8 C313,87.9,311.3,86.2,309.1,86.1L309.1,86.1z"></path> <path class="st0" d="M310.8,92.6l-1.4-2.4h-1.6v2.4h-0.7v-5.5h2.9c0.8,0,1.6,0.6,1.6,1.5c0,0.8-0.6,1.6-1.5,1.6l1.4,2.4H310.8z M310.9,88.6c0-0.2-0.1-0.4-0.3-0.6c-0.2-0.2-0.4-0.3-0.6-0.3h-2.2v1.7h2.2c0.2,0,0.4-0.1,0.6-0.3C310.8,89.1,310.9,88.9,310.9,88.6 L310.9,88.6z"></path> </svg> 